:FULLY-SPECIFIED
:FORCE-ALL-JOINTS-BE-3DOF
:DEGREES
849
root 3.56313 16.5781 27.8707 -10.57 12.1827 -1.94318
lfemur -17.8118 3.59979 -14.011
ltibia 30.137 -0 0
lfoot -5.2914 -16.6125 -0.195916
ltoes 22.6054 -0 0
rfemur -43.7787 2.62983 7.93593
rtibia 50.4686 -0 0
rfoot 1.45424 -3.22983 0.581552
rtoes -8.34712 0 0
lowerback 9.64712 0.383811 -1.7586
upperback 3.08872 0.38007 -0.695911
thorax -1.83957 0.180101 0.563052
lowerneck -6.18153 -2.89104 2.62801
upperneck 6.33606 -4.31771 2.74913
head 3.15806 -1.97139 0.226411
lclavicle 1.57277e-14 -1.46389e-14 5.79161e-31
lhumerus -40.9583 -17.9911 83.4751
lradius 54.5276 -0 0
lwrist 21.6736 0 0
lhand 3.90439 4.6265 -0.0253041
lfingers 7.12502 -0 0
lthumb 29.3121 32.2113 -0.0630322
rclavicle 1.57277e-14 -1.46389e-14 5.79161e-31
rhumerus -41.4537 9.0734 -66.9036
rradius 55.5138 -0 0
rwrist 0.14552 0 0
rhand -11.6854 -27.8043 0.0814501
rfingers 7.12502 -0 0
rthumb 14.3585 -57.2654 0.0839392
850
root 3.61916 16.5795 28.0459 -11.1601 12.9281 -1.80424
lfemur -17.1368 3.87846 -14.7088
ltibia 30.6731 -0 0
lfoot -5.20172 -17.9312 -0.177166
ltoes 22.7034 -0 0
rfemur -45.7998 2.22096 7.47788
rtibia 51.7723 -0 0
rfoot 2.37694 -2.84826 0.526075
rtoes -7.5806 0 0
lowerback 10.0643 0.142625 -2.09458
upperback 3.23206 0.0156298 -0.737968
thorax -1.94618 4.0212e-05 0.714851
lowerneck -6.21166 -2.95224 2.5957
upperneck 6.57105 -4.41089 2.80294
head 3.24379 -2.01065 0.243793
lclavicle 1.63352e-14 -1.52182e-14 5.24152e-31
lhumerus -40.397 -18.4522 83.1353
lradius 54.6366 -0 0
lwrist 21.822 0 0
lhand 4.32048 4.58957 -0.0228988
lfingers 7.12502 -0 0
lthumb 29.7104 32.1152 -0.0570409
rclavicle 1.63352e-14 -1.52182e-14 5.24152e-31
rhumerus -42.4338 7.84504 -65.2214
rradius 55.0521 -0 0
rwrist 0.262513 0 0
rhand -11.8967 -28.0385 0.0737102
rfingers 7.12502 -0 0
rthumb 14.1551 -57.516 0.0759626
851
root 3.67252 16.5808 28.2126 -11.7221 13.6391 -1.67889
lfemur -16.4969 4.15142 -15.3703
ltibia 31.1835 -0 0
lfoot -5.11674 -19.187 -0.157396
ltoes 22.7968 -0 0
rfemur -47.7208 1.81685 7.05546
rtibia 53.0138 -0 0
rfoot 3.25523 -2.48578 0.467543
rtoes -6.85067 0 0
lowerback 10.4629 -0.0848105 -2.41621
upperback 3.36886 -0.331448 -0.778881
thorax -2.04814 -0.171162 0.859714
lowerneck -6.24033 -3.01054 2.56497
upperneck 6.79476 -4.49982 2.85383
head 3.32542 -2.04807 0.260291
lclavicle 1.69137e-14 -1.577e-14 4.66058e-31
lhumerus -39.8585 -18.8884 82.8063
lradius 54.7404 -0 0
lwrist 21.9633 0 0
lhand 4.7167 4.55441 -0.0203591
lfingers 7.12502 -0 0
lthumb 30.0897 32.0237 -0.0507147
rclavicle 1.69137e-14 -1.577e-14 4.66058e-31
rhumerus -43.3981 6.70236 -63.6044
rradius 54.6124 -0 0
rwrist 0.37392 0 0
rhand -12.0979 -28.2614 0.0655372
rfingers 7.12502 -0 0
rthumb 13.9614 -57.7546 0.0675397
852
root 3.72288 16.582 28.37 -12.2527 14.3114 -1.56682
lfemur -15.8956 4.41582 -15.9922
ltibia 31.6654 -0 0
lfoot -5.03694 -20.3723 -0.13703
ltoes 22.8848 -0 0
rfemur -49.5311 1.4226 6.66943
rtibia 54.1857 -0 0
rfoot 4.08396 -2.14447 0.407198
rtoes -6.16163 0 0
lowerback 10.8403 -0.297394 -2.7212
upperback 3.49817 -0.658847 -0.818246
thorax -2.14479 -0.332534 0.996743
lowerneck -6.26736 -3.06559 2.53597
upperneck 7.00589 -4.58395 2.90156
head 3.40247 -2.0834 0.275816
lclavicle 1.74598e-14 -1.62908e-14 4.06107e-31
lhumerus -39.3463 -19.2974 82.4911
lradius 54.8384 -0 0
lwrist 22.0967 0 0
lhand 5.09088 4.52123 -0.0177377
lfingers 7.12502 -0 0
lthumb 30.4479 31.9374 -0.0441849
rclavicle 1.74598e-14 -1.62908e-14 4.06107e-31
rhumerus -44.3358 5.64898 -62.0635
rradius 54.1973 -0 0
rwrist 0.479085 0 0
rhand -12.2878 -28.4719 0.057104
rfingers 7.12502 -0 0
rthumb 13.7786 -57.9799 0.0588486
